{"title":"Married.at.First.Sight.S03E09.720p.WEBRip.AAC2.0.x264-BTN","uid":13348229,"size":1050908700,"categoryP":"video","categoryS":"hd___tv_shows","magnet":"?xt=urn:btih:485fdd71470c9c0e5cecb57528544a17bb905850&amp;dn=Married.at.First.Sight.S03E09.720p.WEBRip.AAC2.0.x264-BTN&amp;tr=udp%3A%2F%2Ftracker.leechers-paradise.org%3A6969&amp;tr=udp%3A%2F%2Fzer0day.ch%3A1337&amp;tr=udp%3A%2F%2Fopen.demonii.com%3A1337&amp;tr=udp%3A%2F%2Ftracker.coppersurfer.tk%3A6969&amp;tr=udp%3A%2F%2Fexodus.desync.com%3A6969","seeders":0,"leechers":1,"uploader":null,"files":2,"time":1454068720,"description":"Video\r\nID                                       : 1\r\nFormat                                   : AVC\r\nFormat/Info                              : Advanced Video Codec\r\nFormat profile                           :   \r\nFormat settings, CABAC                   : Yes\r\nFormat settings, ReFrames                : 4 frames\r\nCodec ID                                 : avc1\r\nCodec ID/Info                            : Advanced Video Coding\r\nDuration                                 : 53mn 14s\r\nBit rate                                 : 2 499 Kbps\r\nWidth                                    : 1 280 pixels\r\nHeight                                   : 720 pixels\r\nDisplay aspect ratio                     : 16:9\r\nFrame rate mode                          : Variable\r\nFrame rate                               : 23.976 (24000/1001) fps\r\nMinimum frame rate                       : 23.810 fps\r\nMaximum frame rate                       : 24.390 fps\r\nColor space                              : YUV\r\nChroma subsampling                       : 4:2:0\r\nBit depth                                : 8 bits\r\nScan type                                : Progressive\r\nBits/(Pixel*Frame)                       : 0.113\r\nStream size                              : 952 MiB (95%)\r\nWriting library                          : Zencoder Video Encoding System\r\nEncoded date                             : UTC 1904-01-01 00:00:00\r\nTagged date                              : UTC 1904-01-01 00:00:00\r\n\r\nAudio\r\nID                                       : 2\r\nFormat                                   : AAC\r\nFormat/Info                              : Advanced Audio Codec\r\nFormat profile                           : LC\r\nCodec ID                                 : 40\r\nDuration                                 : 53mn 14s\r\nBit rate mode                            : Variable\r\nBit rate                                 : 128 Kbps\r\nMaximum bit rate                         : 130 Kbps\r\nChannel(s)                               : 2 channels\r\nChannel positions                        : Front: L R\r\nSampling rate                            : 48.0 KHz\r\nFrame rate                               : 46.875 fps (1024 spf)\r\nCompression mode                         : Lossy\r\nStream size                              : 48.7 MiB (5%)\r\nDefault                                  : Yes\r\nAlternate group                          : 1\r\nEncoded date                             : UTC 1904-01-01 00:00:00\r\nTagged date                              : UTC 1904-01-01 00:00:00\r\n\r\nText\r\nID                                       : 1-CC1\r\nFormat                                   : EIA-608\r\nMuxing mode                              : SCTE 128 / DTVCC Transport\r\nMuxing mode, more info                   : Muxed in Video #1\r\nDuration                                 : 53mn 14s\r\nBit rate mode                            : Constant\r\nStream size                              : 0.00 Byte (0%)\r\nEncoded stream size                      : 0.00 Byte (0%)","torrent":{"xt":"urn:btih:485fdd71470c9c0e5cecb57528544a17bb905850","amp;dn":"Married.at.First.Sight.S03E09.720p.WEBRip.AAC2.0.x264-BTN","amp;tr":["udp%3A%2F%2Ftracker.leechers-paradise.org%3A6969","udp%3A%2F%2Fzer0day.ch%3A1337","udp%3A%2F%2Fopen.demonii.com%3A1337","udp%3A%2F%2Ftracker.coppersurfer.tk%3A6969","udp%3A%2F%2Fexodus.desync.com%3A6969"],"infoHash":"485fdd71470c9c0e5cecb57528544a17bb905850","infoHashBuffer":{"type":"Buffer","data":[72,95,221,113,71,12,156,14,92,236,181,117,40,84,74,23,187,144,88,80]},"announce":[],"urlList":[]}}